<?xml version="1.0" encoding="UTF-8"?>
<svg version="1.1" xmlns="http://www.w3.org/2000/svg" width="48" height="48">
<path d="M0 0 C4.43118719 2.13646525 7.2290203 4.37577522 9 9 C9.5066938 14.40473387 9.82642181 19.21422603 7 24 C7.6496875 24.61488281 8.299375 25.22976562 8.96875 25.86328125 C9.8040625 26.67152344 10.639375 27.47976562 11.5 28.3125 C12.75296875 29.51326172 12.75296875 29.51326172 14.03125 30.73828125 C16 33 16 33 16 36 C12.12488273 35.45015228 10.40423494 33.72444669 7.75 30.9375 C7.04359375 30.20402344 6.3371875 29.47054687 5.609375 28.71484375 C5.07828125 28.14894531 4.5471875 27.58304688 4 27 C3.45085938 27.32226562 2.90171875 27.64453125 2.3359375 27.9765625 C-1.93923547 29.84963159 -6.42906999 29.53658744 -11 29 C-15.43118719 26.86353475 -18.2290203 24.62422478 -20 20 C-20.66198068 14.65511896 -20.67332051 10.39651661 -18.3125 5.5 C-12.87841695 -0.37468438 -7.7986492 -1.03065848 0 0 Z M-13 6 C-15.72047581 8.72047581 -16.82100497 11.15160691 -17 15 C-15.52829361 19.49257741 -14.27567118 22.73640938 -10 25 C-6.46120182 26.33900472 -5.03946602 26.01292852 -1.375 24.8125 C2.75889391 22.59244586 4.24151982 21.00455477 5.875 16.6875 C6.05492501 12.81911223 4.81508529 10.379814 3 7 C-2.19539971 1.80460029 -6.8525743 2.69860472 -13 6 Z " fill="#000000" transform="translate(26,6)"/>
</svg>
